# xmcd
#
# Track frame offsets: 
#        150
#        23346
#        52233
#        64399
#        80796
#        90351
#        105517
#        123213
#        143138
#        166711
#        181084
#
# Disc length: 2557 seconds
#
# Revision: 0
# Processed by: cddbd v1.5.2PL0 Copyright (c) Steve Scherf et al.
# Submitted via: ExactAudioCopy v1.0b3
#
DISCID=8409fb0b
DTITLE=Vidar Busk and His Bubble of Trouble - Troublecaster
DYEAR=2012
DGENRE=Blues
TTITLE0=Are You with Me Baby
TTITLE1=Train Kept-A-Rollin
TTITLE2=Jeanie, Jeanie, Jeanie
TTITLE3=Sneakin' Around
TTITLE4=Hurry Up'n Wait
TTITLE5=Crazy ol' Barrytone
TTITLE6=One Eye Open
TTITLE7=Alabama Bloodhound
TTITLE8=Troublecaster
TTITLE9=Please Give Me Something
TTITLE10=Danger Zone
EXTD=
EXTT0=
EXTT1=
EXTT2=
EXTT3=
EXTT4=
EXTT5=
EXTT6=
EXTT7=
EXTT8=
EXTT9=
EXTT10=
PLAYORDER=
